<?xml version="1.0" encoding="UTF-8" standalone="no"?>
<svg
   xmlns:dc="http://purl.org/dc/elements/1.1/"
   xmlns:cc="http://creativecommons.org/ns#"
   xmlns:rdf="http://www.w3.org/1999/02/22-rdf-syntax-ns#"
   xmlns:svg="http://www.w3.org/2000/svg"
   xmlns="http://www.w3.org/2000/svg"
   xmlns:sodipodi="http://sodipodi.sourceforge.net/DTD/sodipodi-0.dtd"
   xmlns:inkscape="http://www.inkscape.org/namespaces/inkscape"
   width="210mm"
   height="210mm"
   viewBox="0 0 210 210"
   version="1.1"
   id="svg8"
   inkscape:version="1.0.1 (3bc2e813f5, 2020-09-07)"
   sodipodi:docname="clock.svg">
  <defs
     id="defs2" />
  <sodipodi:namedview
     id="base"
     pagecolor="#ffffff"
     bordercolor="#666666"
     borderopacity="1.0"
     inkscape:pageopacity="0.0"
     inkscape:pageshadow="2"
     inkscape:zoom="0.35"
     inkscape:cx="400"
     inkscape:cy="560"
     inkscape:document-units="mm"
     inkscape:current-layer="layer1"
     inkscape:document-rotation="0"
     showgrid="false"
     inkscape:pagecheckerboard="true"
     inkscape:window-width="1514"
     inkscape:window-height="1016"
     inkscape:window-x="50"
     inkscape:window-y="27"
     inkscape:window-maximized="0" />
  <metadata
     id="metadata5">
    <rdf:RDF>
      <cc:Work
         rdf:about="">
        <dc:format>image/svg+xml</dc:format>
        <dc:type
           rdf:resource="http://purl.org/dc/dcmitype/StillImage" />
        <dc:title></dc:title>
      </cc:Work>
    </rdf:RDF>
  </metadata>
  <g
     inkscape:label="Layer 1"
     inkscape:groupmode="layer"
     id="layer1">
    <path
       style="fill:#000000;stroke-width:0.264583"
       d="M 101.92218,207.49132 C 87.846335,206.57144 79.161817,204.7387 67.923227,200.31627 43.625957,190.75521 23.440865,171.06308 13.068022,146.80074 4.9405059,127.79028 2.9227299,106.93768 7.2337709,86.506991 c 1.271001,-6.02347 3.2423771,-12.19831 5.8384631,-18.2875 10.950407,-25.68452 32.98922,-46.19552 59.299612,-55.188748 7.13803,-2.439871 13.757201,-3.9347186 21.745129,-4.9108356 4.66772,-0.570391 16.310795,-0.638971 20.769785,-0.122335 6.22314,0.721034 12.63669,1.946047 17.37741,3.3191526 l 2.04229,0.591531 0.13702,-1.345424 c 0.0754,-0.7399836 0.2685,-2.8917556 0.42921,-4.7817167 0.16072,-1.889961 0.32437,-3.468452 0.36367,-3.507756 0.0393,-0.03931 2.02051,2.280933 4.40268,5.1560841 2.38217,2.8751496 6.25504,7.5492656 8.60639,10.3869216 13.04281,15.740328 11.81755,14.145509 10.93922,14.238598 -0.43274,0.04586 -3.7307,-0.162349 -7.3288,-0.462693 -3.5981,-0.300345 -10.23294,-0.840743 -14.74409,-1.200888 -14.1687,-1.131144 -15.74271,-1.2777 -15.74271,-1.4658 0,-0.100857 1.30969,-1.235842 2.91042,-2.522188 2.57343,-2.068007 3.27065,-2.766195 2.76237,-2.766195 -0.0814,0 -1.42088,-0.285996 -2.97656,-0.635548 C 113.65164,20.661779 101.65899,20.272437 91.338855,21.93919 77.777186,24.129461 64.834938,29.543035 53.755027,37.660018 47.355251,42.348401 40.145394,49.506951 35.509212,55.776001 25.814267,68.885521 20.316286,83.299621 18.56824,100.1903 c -0.280065,2.70614 -0.108884,13.38513 0.267898,16.71252 2.913814,25.73227 16.723667,48.383 38.260182,62.75382 14.18444,9.46495 31.226805,14.63881 47.20711,14.33151 l 4.7625,-0.0916 0.32215,6.61459 c 0.17719,3.63802 0.27251,6.75746 0.21182,6.93208 -0.12578,0.36195 -2.63457,0.37764 -7.67772,0.0481 z m 31.75456,-4.26818 c -0.50433,-1.50098 -3.5535,-11.91573 -3.62155,-12.36977 -0.0788,-0.52568 0.2563,-0.70273 3.48469,-1.84113 4.52139,-1.59434 8.27168,-3.2519 12.29757,-5.4353 1.74319,-0.9454 3.25038,-1.71891 3.34932,-1.71891 0.17817,0 2.69687,4.0564 5.64543,9.09204 1.21713,2.07867 1.45406,2.65902 1.16425,2.8519 -1.99179,1.32558 -7.41941,4.08824 -11.33317,5.7686 -2.89516,1.24303 -10.3003,3.9833 -10.7642,3.9833 -0.0612,0 -0.16123,-0.14883 -0.22234,-0.33073 z m 37.10049,-29.50373 c -2.58148,-2.58447 -4.69359,-4.79618 -4.69359,-4.9149 0,-0.11873 1.00763,-1.30815 2.23917,-2.64315 3.11664,-3.37846 5.90205,-6.90421 8.39739,-10.62937 1.16974,-1.74625 2.24055,-3.21767 2.37956,-3.26981 0.13902,-0.0522 2.85792,1.47563 6.04201,3.39505 l 5.78924,3.48987 -1.35436,2.16119 c -1.87624,2.99399 -5.19775,7.52811 -7.5917,10.36328 -2.23318,2.64476 -6.09362,6.74688 -6.34938,6.74688 -0.0906,0 -2.27685,-2.11457 -4.85834,-4.69904 z M 136.4503,148.26845 c -1.09382,-0.58265 -0.023,0.51879 -24.06224,-24.75104 -4.70676,-4.94771 -9.49309,-9.95759 -10.63629,-11.13306 l -2.078545,-2.13722 0.002,-31.597159 c 0.001,-22.02401 0.0891,-31.91779 0.29057,-32.65548 0.650475,-2.38134 2.581595,-3.83646 5.091475,-3.83646 1.18338,0 1.65883,0.15119 2.70408,0.8599 0.73234,0.49654 1.49964,1.3071 1.81585,1.91823 0.54426,1.05189 0.54759,1.24023 0.54759,30.95625 0,26.322179 0.0481,29.965739 0.40206,30.465069 0.37401,0.52758 6.12957,6.59793 13.63564,14.38141 1.75439,1.81923 4.488,4.6769 6.07471,6.35039 1.58671,1.67349 2.95213,3.10224 3.03426,3.175 1.36847,1.21235 9.86996,10.492 10.20405,11.13806 1.18267,2.28704 0.11156,5.52622 -2.23765,6.76692 -1.44671,0.76406 -3.46051,0.80579 -4.78703,0.0992 z m 57.63974,-13.4924 c -3.15039,-0.98385 -5.90848,-1.85809 -6.12909,-1.94274 -0.35123,-0.13478 -0.33584,-0.36164 0.12377,-1.8245 1.22098,-3.88612 2.57608,-11.56846 3.01795,-17.1093 l 0.1762,-2.20956 1.35916,0.14994 c 0.74754,0.0825 3.32369,0.21746 5.72478,0.29998 2.4011,0.0825 4.87164,0.21297 5.49011,0.28989 l 1.12448,0.13986 v 1.27867 c 0,3.53366 -1.28728,12.0974 -2.64047,17.56581 -1.3,5.25348 -1.28119,5.20323 -1.93603,5.17547 -0.3206,-0.0136 -3.16047,-0.82967 -6.31086,-1.81352 z m -5.09898,-47.216109 c -0.93968,-4.06115 -2.89882,-9.99863 -4.5919,-13.91649 l -1.31488,-3.04271 2.28145,-1.11659 c 5.00814,-2.45107 10.17534,-4.83606 10.27079,-4.74061 0.32325,0.32325 3.18153,7.33101 4.19923,10.29542 0.97859,2.85049 2.61469,8.82286 3.39368,12.38809 l 0.15004,0.68673 -5.08802,0.99003 c -2.79841,0.54452 -5.86916,1.1401 -6.82388,1.32352 l -1.73587,0.33348 z"
       id="path58" />
  </g>
</svg>
